<svg width="640" height="320" viewBox="0 0 640 320" fill="none" xmlns="http://www.w3.org/2000/svg">
<rect width="640" height="320" fill="white"/>
<path d="M211.87 163.803C210.496 162.113 209.81 160.607 209.81 159.287C209.81 157.913 210.945 156.117 213.217 153.899C214.537 152.631 215.937 151.997 217.416 151.997C218.895 151.997 220.956 153.317 223.597 155.959C224.337 156.857 225.393 157.729 226.766 158.574C228.14 159.366 229.408 159.762 230.57 159.762C235.483 159.762 237.939 157.755 237.939 153.74C237.939 152.525 237.252 151.522 235.879 150.729C234.558 149.884 232.894 149.276 230.887 148.907C228.879 148.537 226.714 147.956 224.389 147.163C222.065 146.318 219.899 145.341 217.892 144.232C215.884 143.122 214.194 141.379 212.821 139.002C211.5 136.572 210.84 133.666 210.84 130.286C210.84 125.637 212.556 121.596 215.99 118.162C219.477 114.676 224.204 112.933 230.174 112.933C233.343 112.933 236.222 113.355 238.811 114.2C241.452 114.993 243.274 115.812 244.278 116.657L246.259 118.162C247.897 119.694 248.715 120.988 248.715 122.045C248.715 123.101 248.082 124.554 246.814 126.403C245.018 129.044 243.169 130.365 241.267 130.365C240.158 130.365 238.784 129.837 237.147 128.78C236.988 128.675 236.671 128.41 236.196 127.988C235.773 127.565 235.377 127.222 235.007 126.958C233.898 126.271 232.472 125.928 230.728 125.928C229.038 125.928 227.612 126.35 226.45 127.195C225.34 127.988 224.786 129.124 224.786 130.603C224.786 132.029 225.446 133.191 226.766 134.089C228.14 134.987 229.83 135.595 231.838 135.912C233.845 136.229 236.037 136.73 238.414 137.417C240.792 138.051 242.984 138.843 244.991 139.794C246.999 140.745 248.663 142.409 249.983 144.786C251.357 147.111 252.043 149.989 252.043 153.423C252.043 156.857 251.357 159.894 249.983 162.536C248.61 165.124 246.814 167.131 244.595 168.558C240.316 171.358 235.747 172.757 230.887 172.757C228.404 172.757 226.053 172.467 223.835 171.886C221.616 171.252 219.82 170.486 218.446 169.588C215.647 167.897 213.692 166.26 212.583 164.675L211.87 163.803Z" fill="#162A46"/>
<path d="M280.411 130.206C285.694 130.206 290.079 132.24 293.565 136.308C297.104 140.322 298.874 145.235 298.874 151.046V164.992C298.874 166.207 298.821 167.131 298.715 167.765C298.662 168.347 298.451 169.007 298.082 169.746C297.342 171.173 295.282 171.886 291.901 171.886C288.15 171.886 285.984 170.908 285.403 168.954C285.087 168.056 284.928 166.709 284.928 164.913V150.967C284.928 148.801 284.294 147.111 283.026 145.896C281.811 144.681 280.147 144.073 278.034 144.073C275.974 144.073 274.284 144.707 272.963 145.975C271.695 147.243 271.061 148.907 271.061 150.967V164.992C271.061 166.207 271.008 167.131 270.903 167.765C270.85 168.347 270.612 169.007 270.19 169.746C269.503 171.173 267.469 171.886 264.088 171.886C260.76 171.886 258.726 171.173 257.987 169.746C257.617 168.954 257.379 168.267 257.274 167.686C257.221 167.052 257.195 166.128 257.195 164.913V136.862C257.195 135.7 257.221 134.829 257.274 134.248C257.379 133.614 257.644 132.927 258.066 132.187C258.806 130.867 260.84 130.206 264.168 130.206C267.39 130.206 269.371 130.814 270.111 132.029C270.639 132.927 270.903 134.01 270.903 135.278C271.114 134.908 271.59 134.38 272.329 133.693C273.069 133.006 273.782 132.452 274.469 132.029C276.265 130.814 278.246 130.206 280.411 130.206Z" fill="#162A46"/>
<path d="M304.06 151.125C304.06 144.786 306.278 139.557 310.716 135.436C315.153 131.316 320.224 129.256 325.929 129.256C331.634 129.256 336.68 131.316 341.065 135.436C345.448 139.504 347.642 144.707 347.642 151.046C347.642 155.431 346.505 159.34 344.234 162.773C341.961 166.154 339.188 168.663 335.914 170.301C332.691 171.886 329.336 172.678 325.85 172.678C322.364 172.678 318.983 171.833 315.708 170.142C312.432 168.399 309.659 165.864 307.388 162.536C305.169 159.155 304.06 155.351 304.06 151.125ZM320.62 156.83C322.311 158.098 324.028 158.732 325.771 158.732C327.514 158.732 329.257 158.072 331 156.751C332.744 155.431 333.615 153.476 333.615 150.888C333.615 148.299 332.796 146.371 331.159 145.103C329.521 143.835 327.752 143.202 325.85 143.202C323.948 143.202 322.179 143.862 320.541 145.182C318.904 146.503 318.085 148.458 318.085 151.046C318.085 153.582 318.93 155.51 320.62 156.83Z" fill="#162A46"/>
<path d="M404.619 130.523C407.999 132.003 409.69 133.825 409.69 135.991C409.69 136.889 409.267 138.342 408.422 140.349C407.578 142.303 406.865 144.02 406.283 145.499L397.567 166.735C396.774 169.06 395.455 170.697 393.605 171.648C392.812 172.018 391.81 172.203 390.594 172.203C389.378 172.203 388.189 171.754 387.028 170.856C385.919 169.905 385.178 168.954 384.809 168.003L384.176 166.656C383.752 165.599 382.195 161.479 379.5 154.295C378.973 155.563 378.181 157.649 377.123 160.555C376.12 163.407 375.459 165.203 375.142 165.943C374.877 166.63 374.694 167.105 374.588 167.369C374.536 167.58 374.323 168.003 373.954 168.637C373.585 169.271 373.161 169.826 372.686 170.301C371.418 171.569 369.965 172.203 368.328 172.203C366.691 172.203 365.317 171.754 364.207 170.856C363.098 169.905 362.358 168.954 361.989 168.003L350.024 138.843C349.496 137.259 349.232 136.229 349.232 135.753C349.232 133.64 350.737 131.976 353.748 130.761C355.439 130.074 356.811 129.731 357.868 129.731C358.926 129.731 359.77 129.969 360.404 130.444C361.09 130.867 361.565 131.316 361.83 131.791C362.095 132.214 362.306 132.663 362.464 133.138C363.363 135.251 365.238 140.217 368.09 148.035L372.765 135.198C373.082 134.142 373.664 133.218 374.508 132.425C376.041 130.893 377.599 130.127 379.184 130.127C380.768 130.127 382.115 130.55 383.225 131.395C384.386 132.24 385.178 133.086 385.602 133.931L386.236 135.278C388.878 142.673 390.435 146.899 390.911 147.956L395.744 134.802C397.012 131.421 398.914 129.731 401.449 129.731C402.452 129.731 403.51 129.995 404.619 130.523Z" fill="#162A46"/>
<path d="M436.945 130.286C441.648 130.286 445.951 132.372 449.861 136.546C453.823 140.719 455.804 145.579 455.804 151.125C455.804 156.619 453.85 161.453 449.941 165.626C446.031 169.746 441.831 171.806 437.342 171.806C432.852 171.806 429.656 170.539 427.754 168.003C427.33 170.591 425.06 171.886 420.939 171.886C417.611 171.886 415.578 171.173 414.838 169.746C414.469 168.954 414.231 168.267 414.125 167.686C414.073 167.052 414.046 166.128 414.046 164.913V117.608C414.046 116.393 414.073 115.495 414.125 114.914C414.231 114.28 414.469 113.593 414.838 112.853C415.578 111.427 417.639 110.714 421.019 110.714C424.347 110.714 426.355 111.427 427.041 112.853C427.464 113.646 427.702 114.359 427.754 114.993C427.86 115.574 427.912 116.472 427.912 117.687V134.168C430.025 131.58 433.036 130.286 436.945 130.286ZM429.973 155.88C431.292 157.306 432.932 158.019 434.885 158.019C436.839 158.019 438.503 157.306 439.877 155.88C441.252 154.453 441.938 152.869 441.938 151.125C441.938 149.382 441.304 147.797 440.036 146.371C438.768 144.892 437.077 144.152 434.965 144.152C432.852 144.152 431.161 144.892 429.893 146.371C428.678 147.85 428.071 149.461 428.071 151.205C428.071 152.895 428.705 154.453 429.973 155.88Z" fill="#162A46"/>
<path d="M488.037 134.644C488.354 131.686 490.441 130.206 494.297 130.206C496.357 130.206 497.89 130.365 498.892 130.682C499.898 130.999 500.584 131.554 500.953 132.346C501.376 133.138 501.614 133.851 501.666 134.485C501.772 135.067 501.824 135.964 501.824 137.179V164.913C501.824 166.128 501.772 167.052 501.666 167.686C501.614 168.267 501.403 168.954 501.032 169.746C500.294 171.12 498.471 171.806 495.564 171.806C492.712 171.806 490.785 171.463 489.78 170.776C488.829 170.037 488.274 168.98 488.116 167.607C486.162 170.407 482.886 171.806 478.29 171.806C473.749 171.806 469.522 169.72 465.612 165.547C461.705 161.374 459.751 156.54 459.751 151.046C459.751 145.499 461.705 140.666 465.612 136.546C469.574 132.372 473.908 130.286 478.607 130.286C480.405 130.286 482.042 130.603 483.52 131.237C485.001 131.87 486.031 132.478 486.61 133.059C487.192 133.587 487.668 134.116 488.037 134.644ZM473.615 151.125C473.615 152.869 474.304 154.453 475.676 155.88C477.05 157.253 478.714 157.94 480.668 157.94C482.624 157.94 484.233 157.227 485.501 155.8C486.823 154.374 487.482 152.816 487.482 151.125C487.482 149.382 486.848 147.771 485.58 146.292C484.367 144.813 482.703 144.073 480.591 144.073C478.531 144.073 476.839 144.813 475.517 146.292C474.249 147.771 473.615 149.382 473.615 151.125Z" fill="#162A46"/>
<path d="M522.721 157.94C524.464 157.94 525.759 158.389 526.603 159.287C527.448 160.185 527.871 162.034 527.871 164.834C527.871 167.633 527.423 169.509 526.524 170.459C525.625 171.358 524.333 171.806 522.642 171.806C517.305 171.806 513.556 170.539 511.39 168.003C509.223 165.415 508.141 161.136 508.141 155.166V117.37C508.141 116.155 508.168 115.257 508.22 114.676C508.327 114.042 508.564 113.329 508.933 112.536C509.674 111.163 511.734 110.476 515.114 110.476C518.335 110.476 520.344 111.216 521.136 112.695C521.559 113.434 521.797 114.121 521.849 114.755C521.956 115.336 522.008 116.234 522.008 117.449V155.483C522.008 157.121 522.245 157.94 522.721 157.94ZM543.402 155.483C543.402 156.487 543.612 157.147 544.036 157.464C544.459 157.781 545.541 157.94 547.285 157.94C549.028 157.94 550.481 158.389 551.643 159.287C552.804 160.185 553.386 162.034 553.386 164.834C553.386 167.633 552.752 169.509 551.484 170.459C550.268 171.358 548.552 171.806 546.334 171.806C535.134 171.806 529.535 166.26 529.535 155.166L529.456 117.37C529.456 116.155 529.483 115.257 529.535 114.676C529.642 114.042 529.904 113.329 530.328 112.536C531.12 111.163 533.18 110.476 536.508 110.476C539.73 110.476 541.738 111.216 542.53 112.695C543.112 113.857 543.402 115.442 543.402 117.449V155.483Z" fill="#162A46"/>
<path d="M219.437 191.662V199.313H230.194V201.094H219.437V209.357H217.238V189.881H231.501V191.662H219.437Z" fill="#1B314F"/>
<path d="M268.728 189.881H270.926V209.357H268.728V189.881Z" fill="#1B314F"/>
<path d="M327.762 189.881V209.357H325.95L312.578 193.554V209.357H310.379V189.881H312.192L325.593 205.684V189.881H327.762Z" fill="#1B314F"/>
<path d="M380.283 204.154H368.694L366.198 209.357H363.91L373.419 189.881H375.588L385.097 209.357H382.779L380.283 204.154ZM379.481 202.485L374.489 192.024L369.497 202.485H379.481Z" fill="#1B314F"/>
<path d="M438.605 189.881V209.357H436.792L423.421 193.554V209.357H421.222V189.881H423.034L436.436 205.684V189.881H438.605Z" fill="#1B314F"/>
<path d="M487.113 209.524C485.053 209.524 483.191 209.097 481.527 208.244C479.883 207.391 478.585 206.213 477.634 204.711C476.703 203.189 476.238 201.493 476.238 199.619C476.238 197.746 476.703 196.058 477.634 194.555C478.585 193.034 479.893 191.847 481.557 190.994C483.221 190.141 485.083 189.714 487.143 189.714C488.688 189.714 490.114 189.955 491.422 190.438C492.729 190.92 493.838 191.625 494.75 192.552L493.353 193.86C491.729 192.32 489.678 191.551 487.202 191.551C485.558 191.551 484.062 191.903 482.715 192.608C481.368 193.313 480.308 194.277 479.536 195.501C478.783 196.726 478.407 198.098 478.407 199.619C478.407 201.14 478.783 202.512 479.536 203.737C480.308 204.961 481.368 205.925 482.715 206.63C484.062 207.335 485.558 207.687 487.202 207.687C489.698 207.687 491.748 206.908 493.353 205.35L494.75 206.658C493.838 207.585 492.719 208.3 491.392 208.801C490.085 209.283 488.658 209.524 487.113 209.524Z" fill="#1B314F"/>
<path d="M546.831 207.576V209.357H532.123V189.881H546.386V191.662H534.322V198.59H545.078V200.342H534.322V207.576H546.831Z" fill="#1B314F"/>
<mask id="mask0" mask-type="alpha" maskUnits="userSpaceOnUse" x="86" y="108" width="104" height="104">
<path d="M138 212C166.719 212 190 188.719 190 160C190 131.281 166.719 108 138 108C109.281 108 86 131.281 86 160C86 188.719 109.281 212 138 212Z" fill="#C4C4C4"/>
</mask>
<g mask="url(#mask0)">
<path d="M103.337 130.286L193.403 182.286L156.605 246.023L141.905 237.535C141.905 237.535 132.157 233.716 127.205 229.048C122.253 224.381 116.062 221.905 112.038 220.292C108.015 218.679 102.843 216.567 96.8717 210.762C90.9009 204.956 87.586 200.857 83.8717 200.084C80.1574 199.31 66.5385 194.023 66.5385 194.023L103.337 130.286Z" fill="white"/>
<path d="M122.799 85.7143L212.865 137.714L176.067 201.451L161.367 192.964C161.367 192.964 151.619 189.144 146.667 184.477C141.714 179.81 135.524 177.333 131.5 175.721C127.476 174.108 122.304 171.996 116.333 166.19C110.363 160.385 107.048 156.286 103.333 155.512C99.619 154.739 86.0001 149.451 86.0001 149.451L122.799 85.7143Z" fill="#33A9FF"/>
<path fill-rule="evenodd" clip-rule="evenodd" d="M101.884 122.803C91.2945 132.672 86 145.197 86 160.38C86 170.501 88.6473 179.611 93.9418 187.708C99.3624 195.679 105.981 201.752 113.796 205.927C121.612 209.976 129.68 212 138 212C146.32 212 154.325 210.102 162.015 206.306C169.83 202.384 176.449 196.375 181.869 188.277C187.29 180.053 190 170.691 190 160.19C190 145.007 184.769 132.545 174.305 122.803C163.843 112.934 151.804 108 138.189 108C124.575 108 112.473 112.934 101.884 122.803ZM138 202.095C161.248 202.095 180.095 183.248 180.095 160C180.095 136.752 161.248 117.905 138 117.905C114.752 117.905 95.9048 136.752 95.9048 160C95.9048 183.248 114.752 202.095 138 202.095Z" fill="#33A9FF"/>
<g filter="url(#filter0_i)">
<path d="M145.429 172.381C157.737 172.381 167.714 162.403 167.714 150.095C167.714 137.787 157.737 127.81 145.429 127.81C133.121 127.81 123.143 137.787 123.143 150.095C123.143 162.403 133.121 172.381 145.429 172.381Z" fill="white"/>
</g>
<path d="M115.714 155.048C117.082 155.048 118.19 153.939 118.19 152.571C118.19 151.204 117.082 150.095 115.714 150.095C114.347 150.095 113.238 151.204 113.238 152.571C113.238 153.939 114.347 155.048 115.714 155.048Z" fill="white"/>
<path d="M113.857 146.381C114.199 146.381 114.476 146.104 114.476 145.762C114.476 145.42 114.199 145.143 113.857 145.143C113.515 145.143 113.238 145.42 113.238 145.762C113.238 146.104 113.515 146.381 113.857 146.381Z" fill="white"/>
<path d="M103.952 148.857C104.294 148.857 104.571 148.58 104.571 148.238C104.571 147.896 104.294 147.619 103.952 147.619C103.61 147.619 103.333 147.896 103.333 148.238C103.333 148.58 103.61 148.857 103.952 148.857Z" fill="white"/>
<path d="M109.524 150.095C110.208 150.095 110.762 149.541 110.762 148.857C110.762 148.173 110.208 147.619 109.524 147.619C108.84 147.619 108.286 148.173 108.286 148.857C108.286 149.541 108.84 150.095 109.524 150.095Z" fill="white"/>
</g>
<defs>
<filter id="filter0_i" x="123.143" y="127.81" width="44.5714" height="44.5714" filterUnits="userSpaceOnUse" color-interpolation-filters="sRGB">
<feFlood flood-opacity="0" result="BackgroundImageFix"/>
<feBlend mode="normal" in="SourceGraphic" in2="BackgroundImageFix" result="shape"/>
<feColorMatrix in="SourceAlpha" type="matrix" values="0 0 0 0 0 0 0 0 0 0 0 0 0 0 0 0 0 0 127 0" result="hardAlpha"/>
<feOffset dx="-4" dy="-4"/>
<feComposite in2="hardAlpha" operator="arithmetic" k2="-1" k3="1"/>
<feColorMatrix type="matrix" values="0 0 0 0 0.666667 0 0 0 0 0.756863 0 0 0 0 0.898039 0 0 0 1 0"/>
<feBlend mode="normal" in2="shape" result="effect1_innerShadow"/>
</filter>
</defs>
</svg>
